<mxfile host="app.diagrams.net" modified="2023-07-03T03:20:38.029Z" agent="Mozilla/5.0 (X11; Ubuntu; Linux x86_64; rv:109.0) Gecko/20100101 Firefox/114.0" etag="UfewPTjZYbDQ8S8TJeTs" version="21.5.2" type="device">
  <diagram name="Page-1" id="pkykGsDfx4qAcFVGInm-">
    <mxGraphModel dx="2452" dy="935" grid="1" gridSize="10" guides="1" tooltips="1" connect="1" arrows="1" fold="1" page="1" pageScale="1" pageWidth="850" pageHeight="1100" math="0" shadow="0">
      <root>
        <mxCell id="0" />
        <mxCell id="1" parent="0" />
        <mxCell id="ttvzZSRKVoaPLdhLrDrz-6" style="edgeStyle=orthogonalEdgeStyle;rounded=0;orthogonalLoop=1;jettySize=auto;html=1;entryX=0.5;entryY=0;entryDx=0;entryDy=0;curved=1;" edge="1" parent="1" source="ttvzZSRKVoaPLdhLrDrz-1" target="ttvzZSRKVoaPLdhLrDrz-3">
          <mxGeometry relative="1" as="geometry" />
        </mxCell>
        <mxCell id="ttvzZSRKVoaPLdhLrDrz-15" style="edgeStyle=orthogonalEdgeStyle;curved=1;rounded=0;orthogonalLoop=1;jettySize=auto;html=1;entryX=0.5;entryY=0;entryDx=0;entryDy=0;" edge="1" parent="1" source="ttvzZSRKVoaPLdhLrDrz-1" target="ttvzZSRKVoaPLdhLrDrz-4">
          <mxGeometry relative="1" as="geometry" />
        </mxCell>
        <mxCell id="ttvzZSRKVoaPLdhLrDrz-27" style="edgeStyle=orthogonalEdgeStyle;curved=1;rounded=0;orthogonalLoop=1;jettySize=auto;html=1;entryX=0.5;entryY=0;entryDx=0;entryDy=0;" edge="1" parent="1" source="ttvzZSRKVoaPLdhLrDrz-1" target="ttvzZSRKVoaPLdhLrDrz-26">
          <mxGeometry relative="1" as="geometry" />
        </mxCell>
        <mxCell id="ttvzZSRKVoaPLdhLrDrz-1" value="Outlook" style="rounded=0;whiteSpace=wrap;html=1;" vertex="1" parent="1">
          <mxGeometry x="305" y="140" width="120" height="60" as="geometry" />
        </mxCell>
        <mxCell id="ttvzZSRKVoaPLdhLrDrz-13" value="" style="edgeStyle=orthogonalEdgeStyle;curved=1;rounded=0;orthogonalLoop=1;jettySize=auto;html=1;" edge="1" parent="1" source="ttvzZSRKVoaPLdhLrDrz-3" target="ttvzZSRKVoaPLdhLrDrz-12">
          <mxGeometry relative="1" as="geometry" />
        </mxCell>
        <mxCell id="ttvzZSRKVoaPLdhLrDrz-24" style="edgeStyle=orthogonalEdgeStyle;curved=1;rounded=0;orthogonalLoop=1;jettySize=auto;html=1;exitX=0.5;exitY=1;exitDx=0;exitDy=0;entryX=0.5;entryY=0;entryDx=0;entryDy=0;" edge="1" parent="1" source="ttvzZSRKVoaPLdhLrDrz-3" target="ttvzZSRKVoaPLdhLrDrz-23">
          <mxGeometry relative="1" as="geometry" />
        </mxCell>
        <mxCell id="ttvzZSRKVoaPLdhLrDrz-3" value="Humid" style="rounded=0;whiteSpace=wrap;html=1;" vertex="1" parent="1">
          <mxGeometry x="60" y="300" width="120" height="60" as="geometry" />
        </mxCell>
        <mxCell id="ttvzZSRKVoaPLdhLrDrz-10" style="edgeStyle=orthogonalEdgeStyle;curved=1;rounded=0;orthogonalLoop=1;jettySize=auto;html=1;exitX=0.5;exitY=1;exitDx=0;exitDy=0;entryX=0.5;entryY=0;entryDx=0;entryDy=0;" edge="1" parent="1" source="ttvzZSRKVoaPLdhLrDrz-4" target="ttvzZSRKVoaPLdhLrDrz-9">
          <mxGeometry relative="1" as="geometry" />
        </mxCell>
        <mxCell id="ttvzZSRKVoaPLdhLrDrz-21" style="edgeStyle=orthogonalEdgeStyle;curved=1;rounded=0;orthogonalLoop=1;jettySize=auto;html=1;entryX=0.5;entryY=0;entryDx=0;entryDy=0;" edge="1" parent="1" source="ttvzZSRKVoaPLdhLrDrz-4" target="ttvzZSRKVoaPLdhLrDrz-19">
          <mxGeometry relative="1" as="geometry" />
        </mxCell>
        <mxCell id="ttvzZSRKVoaPLdhLrDrz-4" value="Windy" style="rounded=0;whiteSpace=wrap;html=1;" vertex="1" parent="1">
          <mxGeometry x="580" y="300" width="120" height="60" as="geometry" />
        </mxCell>
        <mxCell id="ttvzZSRKVoaPLdhLrDrz-7" value="Rain" style="text;html=1;strokeColor=none;fillColor=none;align=center;verticalAlign=middle;whiteSpace=wrap;rounded=0;" vertex="1" parent="1">
          <mxGeometry x="460" y="130" width="60" height="30" as="geometry" />
        </mxCell>
        <mxCell id="ttvzZSRKVoaPLdhLrDrz-8" value="Sunny" style="text;html=1;strokeColor=none;fillColor=none;align=center;verticalAlign=middle;whiteSpace=wrap;rounded=0;" vertex="1" parent="1">
          <mxGeometry x="220" y="140" width="60" height="30" as="geometry" />
        </mxCell>
        <mxCell id="ttvzZSRKVoaPLdhLrDrz-9" value="No" style="rounded=0;whiteSpace=wrap;html=1;" vertex="1" parent="1">
          <mxGeometry x="670" y="430" width="120" height="60" as="geometry" />
        </mxCell>
        <mxCell id="ttvzZSRKVoaPLdhLrDrz-11" value="Strong" style="text;html=1;strokeColor=none;fillColor=none;align=center;verticalAlign=middle;whiteSpace=wrap;rounded=0;" vertex="1" parent="1">
          <mxGeometry x="700" y="360" width="60" height="30" as="geometry" />
        </mxCell>
        <mxCell id="ttvzZSRKVoaPLdhLrDrz-12" value="No" style="rounded=0;whiteSpace=wrap;html=1;" vertex="1" parent="1">
          <mxGeometry x="130" y="450" width="120" height="60" as="geometry" />
        </mxCell>
        <mxCell id="ttvzZSRKVoaPLdhLrDrz-14" value="High" style="text;html=1;strokeColor=none;fillColor=none;align=center;verticalAlign=middle;whiteSpace=wrap;rounded=0;" vertex="1" parent="1">
          <mxGeometry x="170" y="361" width="60" height="30" as="geometry" />
        </mxCell>
        <mxCell id="ttvzZSRKVoaPLdhLrDrz-19" value="Yes" style="rounded=0;whiteSpace=wrap;html=1;" vertex="1" parent="1">
          <mxGeometry x="480" y="440" width="120" height="60" as="geometry" />
        </mxCell>
        <mxCell id="ttvzZSRKVoaPLdhLrDrz-22" value="Weak" style="text;html=1;strokeColor=none;fillColor=none;align=center;verticalAlign=middle;whiteSpace=wrap;rounded=0;" vertex="1" parent="1">
          <mxGeometry x="530" y="360" width="60" height="30" as="geometry" />
        </mxCell>
        <mxCell id="ttvzZSRKVoaPLdhLrDrz-23" value="Yes" style="rounded=0;whiteSpace=wrap;html=1;" vertex="1" parent="1">
          <mxGeometry x="-40" y="430" width="120" height="60" as="geometry" />
        </mxCell>
        <mxCell id="ttvzZSRKVoaPLdhLrDrz-25" value="Normal" style="text;html=1;strokeColor=none;fillColor=none;align=center;verticalAlign=middle;whiteSpace=wrap;rounded=0;" vertex="1" parent="1">
          <mxGeometry y="360" width="60" height="30" as="geometry" />
        </mxCell>
        <mxCell id="ttvzZSRKVoaPLdhLrDrz-26" value="Yes" style="rounded=0;whiteSpace=wrap;html=1;" vertex="1" parent="1">
          <mxGeometry x="305" y="280" width="120" height="60" as="geometry" />
        </mxCell>
        <mxCell id="ttvzZSRKVoaPLdhLrDrz-28" value="Overcast" style="text;html=1;strokeColor=none;fillColor=none;align=center;verticalAlign=middle;whiteSpace=wrap;rounded=0;" vertex="1" parent="1">
          <mxGeometry x="370" y="230" width="60" height="30" as="geometry" />
        </mxCell>
      </root>
    </mxGraphModel>
  </diagram>
</mxfile>
